# xmcd CD database file
#
# Track frame offsets:
#	150
#	20707
#	41230
#	58965
#	75488
#	89751
#	116905
#	136009
#
# Disc length: 2084 seconds
#
# Revision: 1
# Processed by: cddbd v1.5.2PL0 Copyright (c) Steve Scherf et al.
# Submitted via: CDex 1.70beta2
#
DISCID=70082208
DTITLE=Timmy Thomas - Touch To Touch
DYEAR=1978
DGENRE=Soul
TTITLE0=Touch To Touch (Noel Williams)
TTITLE1=Africano (Noel Williams)
TTITLE2=When A House Got Music (Luther Dixon)
TTITLE3=Game Of Life (Timmy Thomas)
TTITLE4=Love For The People (Noel Williams)
TTITLE5=Torrid Zone (Noel Williams)
TTITLE6=Diane
TTITLE7=Sweet Music (Noel Williams)
EXTD=YEAR: 1978
EXTT0=
EXTT1=
EXTT2=
EXTT3=
EXTT4=
EXTT5=
EXTT6=
EXTT7=
PLAYORDER=
